<?xml version="1.0" encoding="utf-8"?>
<svg viewBox="0 0 448 388" width="448" height="388"
  xmlns="http://www.w3.org/2000/svg" class="st0">
  <style type="text/css">
    <![CDATA[
	.st0{fill-rule:evenodd;clip-rule:evenodd;fill:#007acc;}
]]>
  </style>
  <g transform="matrix(0.694117, 0, 0, 0.669192, 41.563328, 26.095896)" style="">
    <g>
      <path d="M294.957,333.913c-9.223,0-16.696,7.473-16.696,16.696v100.174c0,9.223,7.473,16.696,16.696,16.696 c9.223,0,16.696-7.473,16.696-16.696V350.609C311.652,341.386,304.179,333.913,294.957,333.913z"/>
    </g>
  </g>
  <g transform="matrix(0.694117, 0, 0, 0.669192, 41.563328, 26.095896)" style="">
    <g>
      <path d="M430.527,426.505c-6.527-6.516-17.092-6.516-23.609,0.011c-6.516,6.521-6.511,17.092,0.011,23.609 c3.158,3.158,4.896,7.343,4.896,11.788s-1.74,8.631-4.907,11.799c-6.315,6.315-17.25,6.327-23.587-0.011 c-3.158-3.158-4.897-7.343-4.897-11.788V350.609c0-9.223-7.473-16.696-16.696-16.696c-9.223,0-16.696,7.473-16.696,16.696v111.304 c0,13.37,5.218,25.946,14.679,35.397c9.462,9.473,22.038,14.69,35.408,14.69s25.946-5.218,35.397-14.679 c9.473-9.462,14.69-22.038,14.69-35.408S439.999,435.967,430.527,426.505z"/>
    </g>
  </g>
  <g transform="matrix(0.694117, 0, 0, 0.669192, 41.563328, 26.095896)" style="">
    <g>
      <path d="M150.261,333.913c-9.223,0-16.696,7.473-16.696,16.696v111.304c0,4.445-1.74,8.636-4.902,11.799 c-6.315,6.315-17.272,6.315-23.586,0c-3.164-3.163-4.903-7.354-4.903-11.799s1.739-8.63,4.896-11.788 c6.522-6.516,6.528-17.086,0.011-23.609c-6.521-6.527-17.097-6.527-23.609-0.011c-9.473,9.462-14.69,22.038-14.69,35.408 c0,13.364,5.217,25.941,14.684,35.408C90.929,506.788,103.505,512,116.87,512s25.941-5.212,35.403-14.679 c9.466-9.468,14.684-22.044,14.684-35.408V350.609C166.957,341.386,159.484,333.913,150.261,333.913z"/>
    </g>
  </g>
  <g transform="matrix(0.694117, 0, 0, 0.669192, 41.563328, 26.095896)" style="">
    <g>
      <path d="M495.304,0H16.696C7.473,0,0,7.473,0,16.696v267.13c0,9.223,7.473,16.696,16.696,16.696h478.609 c9.223,0,16.696-7.473,16.696-16.696V16.696C512,7.473,504.527,0,495.304,0z M328.348,66.783c9.22,0,16.696,7.475,16.696,16.696 s-7.475,16.696-16.696,16.696s-16.696-7.475-16.696-16.696S319.127,66.783,328.348,66.783z M428.522,233.739H83.478 c-9.223,0-16.696-7.473-16.696-16.696c0-9.223,7.473-16.696,16.696-16.696h345.043c9.223,0,16.696,7.473,16.696,16.696 C445.217,226.266,437.744,233.739,428.522,233.739z M428.522,166.957H83.478c-9.223,0-16.696-7.473-16.696-16.696 s7.473-16.696,16.696-16.696h345.043c9.223,0,16.696,7.473,16.696,16.696C445.217,159.484,437.744,166.957,428.522,166.957z M428.522,100.174c-9.22,0-16.696-7.475-16.696-16.696s7.475-16.696,16.696-16.696s16.696,7.475,16.696,16.696 S437.742,100.174,428.522,100.174z"/>
    </g>
  </g>
  <g transform="matrix(0.694117, 0, 0, 0.669192, 41.563328, 26.095896)" style="">
    <g>
      <path d="M217.043,333.913c-9.223,0-16.696,7.473-16.696,16.696v100.174c0,9.223,7.473,16.696,16.696,16.696 c9.223,0,16.696-7.473,16.696-16.696V350.609C233.739,341.386,226.266,333.913,217.043,333.913z"/>
    </g>
  </g>
</svg>