<?xml version="1.0" encoding="utf-8"?>
<svg viewBox="134 78.321 134.651 144.982"
  xmlns="http://www.w3.org/2000/svg">
  <style type="text/css">
    <![CDATA[
	.st0{fill-rule:evenodd;clip-rule:evenodd;fill:#007acc;}
]]>
  </style>
  <path class="st0" d="M 148.667 125.894 L 261.426 125.894 C 267.462 125.907 272.353 130.85 272.372 136.955 L 272.372 201.592 C 272.353 207.698 267.462 212.641 261.426 212.654 L 248.277 212.654 L 248.277 222.218 C 248.277 222.817 247.797 223.303 247.204 223.303 L 237.214 223.303 C 236.62 223.303 236.137 222.819 236.13 222.218 L 236.13 212.701 L 173.951 212.701 L 173.951 222.218 C 173.951 222.817 173.471 223.303 172.879 223.303 L 162.888 223.303 C 162.294 223.303 161.811 222.819 161.804 222.218 L 161.804 212.701 L 148.667 212.701 C 142.608 212.701 137.701 207.722 137.721 201.592 L 137.721 136.955 C 137.727 130.844 142.626 125.894 148.667 125.894 Z M 166.467 81.635 C 166.021 80.232 166.89 78.751 168.321 78.475 C 169.766 78.003 171.336 78.669 172.016 80.043 C 175.513 88.935 173.007 95.232 170.792 100.775 C 168.88 105.492 167.295 109.608 171.526 114.195 C 172.573 115.244 172.328 117.016 171.037 117.733 C 169.723 118.561 168.019 118.366 166.922 117.261 C 160.662 110.528 162.76 105.28 165.22 99.147 C 167.167 94.371 169.358 88.958 166.467 81.635 Z M 221.652 81.623 C 221.197 80.226 222.064 78.743 223.494 78.475 C 224.943 77.997 226.52 78.664 227.201 80.043 C 230.698 88.958 228.18 95.232 225.965 100.751 C 224.065 105.468 222.468 109.584 226.7 114.172 C 227.747 115.22 227.501 116.992 226.21 117.709 C 224.904 118.553 223.194 118.367 222.095 117.261 C 215.823 110.539 217.933 105.292 220.393 99.147 C 222.34 94.371 224.508 88.958 221.652 81.623 Z M 240.012 81.623 C 239.565 80.23 240.431 78.756 241.854 78.486 C 243.3 78.007 244.876 78.668 245.561 80.043 C 249.058 88.947 246.54 95.244 244.325 100.775 C 242.425 105.492 240.828 109.608 245.06 114.195 C 246.106 115.244 245.861 117.016 244.57 117.733 C 243.256 118.561 241.552 118.366 240.455 117.261 C 234.195 110.539 236.293 105.28 238.753 99.147 C 240.7 94.43 242.88 88.911 240.012 81.623 L 240.012 81.623 Z M 184.839 81.623 C 184.384 80.226 185.251 78.743 186.681 78.475 C 188.13 77.997 189.706 78.664 190.388 80.043 C 193.885 88.958 191.343 95.232 189.152 100.751 C 187.252 105.468 185.655 109.584 189.886 114.172 C 190.933 115.22 190.688 116.992 189.397 117.709 C 188.09 118.553 186.381 118.367 185.282 117.261 C 179.022 110.539 181.12 105.292 183.58 99.147 C 185.515 94.371 187.695 88.958 184.839 81.623 Z M 203.199 81.623 C 202.752 80.23 203.617 78.756 205.041 78.486 C 206.487 78.007 208.062 78.668 208.748 80.043 C 212.245 88.947 209.727 95.244 207.512 100.775 C 205.612 105.492 204.015 109.608 208.246 114.195 C 209.293 115.244 209.048 117.016 207.757 117.733 C 206.443 118.561 204.739 118.366 203.642 117.261 C 197.382 110.539 199.48 105.28 201.94 99.147 C 203.887 94.43 206.066 88.911 203.199 81.623 L 203.199 81.623 Z M 247.496 141.024 C 247.645 138.514 250.424 137.109 252.499 138.494 C 253.346 139.061 253.881 139.998 253.942 141.024 L 253.942 197.783 C 254.092 200.293 251.499 202.026 249.275 200.901 C 248.118 200.316 247.418 199.089 247.496 197.783 L 247.496 141.036 L 247.496 141.024 Z M 229.276 141.024 C 229.425 138.514 232.204 137.109 234.279 138.494 C 235.126 139.061 235.661 139.998 235.722 141.024 L 235.722 197.783 C 235.871 200.293 233.279 202.026 231.055 200.901 C 229.898 200.316 229.198 199.089 229.276 197.783 L 229.276 141.036 L 229.276 141.024 Z M 211.056 141.024 C 211.205 138.514 213.984 137.109 216.058 138.494 C 216.906 139.061 217.441 139.998 217.502 141.024 L 217.502 197.783 C 217.651 200.293 215.059 202.026 212.835 200.901 C 211.678 200.316 210.978 199.089 211.056 197.783 L 211.056 141.036 L 211.056 141.024 Z M 192.836 141.024 C 192.985 138.514 195.764 137.109 197.838 138.494 C 198.686 139.061 199.221 139.998 199.282 141.024 L 199.282 197.783 C 199.431 200.293 196.839 202.026 194.615 200.901 C 193.458 200.316 192.758 199.089 192.836 197.783 L 192.836 141.036 L 192.836 141.024 Z M 174.616 141.024 C 174.616 138.518 177.297 136.952 179.442 138.205 C 180.437 138.787 181.05 139.861 181.05 141.024 L 181.05 197.783 C 181.05 200.289 178.369 201.855 176.224 200.602 C 175.229 200.021 174.616 198.946 174.616 197.783 L 174.616 141.036 L 174.616 141.024 Z M 156.372 141.036 C 156.372 138.53 159.053 136.964 161.198 138.217 C 162.194 138.798 162.807 139.873 162.807 141.036 L 162.807 197.795 C 162.807 200.301 160.126 201.867 157.981 200.614 C 156.985 200.032 156.372 198.958 156.372 197.795 L 156.372 141.036 Z M 261.38 132.191 L 148.667 132.191 C 146.107 132.229 144.041 134.319 144.004 136.908 L 144.004 201.545 C 144.041 204.134 146.107 206.224 148.667 206.262 L 261.426 206.262 C 263.986 206.224 266.051 204.134 266.089 201.545 L 266.089 136.955 C 266.051 134.366 263.986 132.276 261.426 132.238 L 261.38 132.191 Z" style=""/>
</svg>