<?xml version="1.0" encoding="utf-8"?>
<svg viewBox="0 0 129.35 131.09" width="129.35" height="131.09" xmlns="http://www.w3.org/2000/svg">
  <g transform="matrix(1, 0, 0, 1, 166.091568, 119.534485)">
    <path class="st0" d="M -102.321 -115.429 C -94.441 -81.769 -84.871 -80.029 -68.521 -54.739 C -64.271 -48.169 -61.301 -41.179 -61.301 -33.159 C -61.301 -22.019 -65.321 -12.469 -73.371 -4.509 C -81.451 3.451 -91.081 7.451 -102.301 7.451 C -113.491 7.451 -123.101 3.451 -131.181 -4.509 C -139.241 -12.469 -143.271 -22.019 -143.271 -33.159 C -143.271 -41.219 -140.251 -48.259 -135.961 -54.869 C -119.581 -80.099 -110.051 -81.879 -102.321 -115.429 Z" style="clip-rule: evenodd; fill: rgb(66, 165, 245); fill-rule: evenodd;"/>
    <text style="fill: rgb(255, 255, 255); font-family: Arial, sans-serif; font-size: 16.2px; font-weight: 700; text-anchor: middle; word-spacing: 16px; white-space: pre;" transform="matrix(3.920898, 0, 0, 3.392113, -850.433411, -705.691101)" x="191.003" y="204.176">%</text>
  </g>
</svg>