<?xml version="1.0" encoding="utf-8"?>
<svg viewBox="8.121 -44.084 500 500" width="500" height="500"
  xmlns="http://www.w3.org/2000/svg">
  <g transform="matrix(0.1, 0, 0, -0.1, -8.517231, 522.180481)">
    <path fill="#FFF" d="M 5299.814 5332.622 L 102.549 5336.427 L 5299.814 5332.622 Z M 3322.027 4689.217 C 3686.138 4300.213 4896.099 2971.214 4903.058 2952.215 C 4915.978 2918.216 4899.876 2876.214 4867.843 2858.216 C 4842.811 2844.217 4804.828 2855.213 4221.245 3035.213 C 3879.486 3141.215 3594.682 3227.216 3587.68 3227.216 C 3580.678 3227.216 3453.485 3139.218 3304.236 3032.216 C 3096.894 2883.217 3026.789 2837.216 3003.791 2837.216 C 2987.795 2837.216 2792.934 2898.217 2572.1 2973.217 L 2171.414 3109.218 L 1753.987 2923.217 C 1524.755 2821.215 1324.563 2737.216 1310.564 2737.216 C 1292.561 2737.216 1223.658 2779.218 1108.837 2857.216 C 1012.986 2923.217 930.109 2976.215 924.102 2973.217 C 893.075 2962.216 497.836 2857.216 484.838 2857.216 C 455.839 2857.216 418.942 2903.217 419.024 2939.218 C 419.092 2969.218 471.22 3024.218 1037.511 3589.218 C 1377.285 3928.216 1667.932 4211.215 1681.945 4217.216 C 1699.959 4224.218 1716.963 4225.214 1734.945 4218.217 C 1748.935 4212.216 1869.705 4113.217 2002.44 3996.215 L 2242.959 3785.214 L 2711.024 4250.214 C 2967.603 4505.214 3187.098 4720.214 3198.108 4726.215 C 3242.164 4749.217 3275.139 4739.217 3322.027 4689.217 Z" style=""/>
    <path fill="#FFF" d="M 2768.608 4092.216 C 2513.608 3837.216 2291.606 3623.217 2276.606 3616.215 C 2261.606 3610.214 2238.608 3607.216 2226.606 3611.215 C 2213.608 3614.218 2093.608 3713.217 1958.608 3831.215 L 1713.608 4046.215 L 1236.606 3569.218 C 973.608 3307.216 760.61 3092.216 762.607 3090.214 C 763.608 3089.218 805.61 3098.217 854.609 3112.216 C 903.608 3126.215 952.607 3134.218 963.608 3130.214 C 974.609 3127.216 1057.607 3075.214 1148.608 3014.218 C 1238.608 2953.217 1318.608 2904.218 1325.61 2904.218 C 1331.606 2904.218 1522.607 2986.215 1749.609 3088.217 L 2161.606 3272.216 L 2574.609 3133.217 C 2986.606 2993.217 2986.606 2993.217 3013.608 3011.215 C 3029.604 3021.215 3145.61 3105.214 3273.608 3197.216 C 3534.604 3385.214 3536.606 3387.216 3573.608 3387.216 C 3588.608 3387.216 3818.608 3319.218 4085.61 3236.215 C 4352.612 3154.218 4572.612 3088.217 4574.604 3090.214 C 4577.612 3092.216 4521.606 3157.216 4450.61 3233.217 C 4380.61 3309.218 4089.604 3626.215 3804.604 3937.216 C 3518.608 4248.216 3273.608 4514.217 3259.604 4529.217 L 3233.608 4557.216 L 2768.608 4092.216 Z"/>
  </g>
</svg>