<?xml version="1.0" encoding="utf-8"?>
<svg viewBox="11.021 -48.724 500 500" width="500" height="500" xmlns="http://www.w3.org/2000/svg">
  <g transform="matrix(0.1, 0, 0, -0.1, 2.700696, 460.756378)">
    <path fill="#003366" d="M 5299.814 5332.622 L 102.549 5336.427 L 5299.814 5332.622 Z M 3322.027 4689.217 C 3686.138 4300.213 4896.099 2971.214 4903.058 2952.215 C 4915.978 2918.216 4899.876 2876.214 4867.843 2858.216 C 4842.811 2844.217 4804.828 2855.213 4221.245 3035.213 C 3879.486 3141.215 3594.682 3227.216 3587.68 3227.216 C 3580.678 3227.216 3453.485 3139.218 3304.236 3032.216 C 3096.894 2883.217 3026.789 2837.216 3003.791 2837.216 C 2987.795 2837.216 2792.934 2898.217 2572.1 2973.217 L 2171.414 3109.218 L 1753.987 2923.217 C 1524.755 2821.215 1324.563 2737.216 1310.564 2737.216 C 1292.561 2737.216 1223.658 2779.218 1108.837 2857.216 C 1012.986 2923.217 930.109 2976.215 924.102 2973.217 C 893.075 2962.216 497.836 2857.216 484.838 2857.216 C 455.839 2857.216 418.942 2903.217 419.024 2939.218 C 419.092 2969.218 471.22 3024.218 1037.511 3589.218 C 1377.285 3928.216 1667.932 4211.215 1681.945 4217.216 C 1699.959 4224.218 1716.963 4225.214 1734.945 4218.217 C 1748.935 4212.216 1869.705 4113.217 2002.44 3996.215 L 2242.959 3785.214 L 2711.024 4250.214 C 2967.603 4505.214 3187.098 4720.214 3198.108 4726.215 C 3242.164 4749.217 3275.139 4739.217 3322.027 4689.217 Z M 1656.414 1797.216 L 1654.952 1157.216 L 1484.952 1157.216 L 1314.952 1157.216 L 1316.414 1797.216 L 1317.877 2437.216 L 1487.877 2437.216 L 1657.877 2437.216 L 1656.414 1797.216 Z M 4127.557 2297.216 L 4127.239 2158.212 L 3995.23 2155.214 L 3862.225 2152.216 L 3858.092 1655.214 L 3854.952 1157.216 L 3684.952 1157.216 L 3514.952 1157.216 L 3514.088 1655.214 L 3512.225 2152.216 L 3380.23 2155.214 L 3247.239 2158.212 L 3247.557 2297.216 L 3247.877 2437.216 L 3687.877 2437.216 L 4127.877 2437.216 L 4127.557 2297.216 Z M 2638 2053.212 C 2739.956 2035.214 2815.873 1996.22 2890.715 1927.216 C 2960.564 1861.22 2998.418 1798.212 3021.22 1712.216 C 3088.619 1450.214 2921.032 1194.218 2647.913 1141.22 C 2439.826 1102.216 2239.938 1151.22 2119.211 1271.22 C 1981.528 1409.218 1946.03 1629.218 2033.425 1801.22 C 2047.488 1829.218 2083.599 1877.216 2113.67 1908.212 C 2236.963 2037.216 2428.085 2090.214 2638 2053.212 Z" style=""/>
    <path fill="#003366" d="M 2768.608 4092.216 C 2513.608 3837.216 2291.606 3623.217 2276.606 3616.215 C 2261.606 3610.214 2238.608 3607.216 2226.606 3611.215 C 2213.608 3614.218 2093.608 3713.217 1958.608 3831.215 L 1713.608 4046.215 L 1236.606 3569.218 C 973.608 3307.216 760.61 3092.216 762.607 3090.214 C 763.608 3089.218 805.61 3098.217 854.609 3112.216 C 903.608 3126.215 952.607 3134.218 963.608 3130.214 C 974.609 3127.216 1057.607 3075.214 1148.608 3014.218 C 1238.608 2953.217 1318.608 2904.218 1325.61 2904.218 C 1331.606 2904.218 1522.607 2986.215 1749.609 3088.217 L 2161.606 3272.216 L 2574.609 3133.217 C 2986.606 2993.217 2986.606 2993.217 3013.608 3011.215 C 3029.604 3021.215 3145.61 3105.214 3273.608 3197.216 C 3534.604 3385.214 3536.606 3387.216 3573.608 3387.216 C 3588.608 3387.216 3818.608 3319.218 4085.61 3236.215 C 4352.612 3154.218 4572.612 3088.217 4574.604 3090.214 C 4577.612 3092.216 4521.606 3157.216 4450.61 3233.217 C 4380.61 3309.218 4089.604 3626.215 3804.604 3937.216 C 3518.608 4248.216 3273.608 4514.217 3259.604 4529.217 L 3233.608 4557.216 L 2768.608 4092.216 Z"/>
    <path d="M 2433.608 1774.218 C 2375.61 1747.216 2318.608 1660.214 2318.608 1597.216 C 2318.608 1534.218 2372.607 1451.22 2432.607 1420.214 C 2471.606 1400.214 2555.61 1400.214 2594.609 1420.214 C 2611.606 1429.218 2639.609 1452.216 2655.61 1471.22 C 2733.608 1559.218 2720.61 1679.218 2623.608 1753.212 C 2593.608 1776.22 2573.608 1782.216 2524.609 1784.218 C 2487.607 1786.22 2451.606 1782.216 2433.608 1774.218 Z" style="fill: rgb(255, 255, 255);"/>
  </g>
</svg>