<?xml version="1.0" encoding="utf-8"?>
<svg viewBox="0 0 500 500" width="500" height="500" xmlns="http://www.w3.org/2000/svg">
  <path fill="#FFF" d="M 283.784 74.736 C 283.784 65.231 279.896 56.581 273.619 50.313 C 267.351 44.045 258.711 40.148 249.206 40.148 C 239.701 40.148 231.06 44.045 224.783 50.313 C 218.515 56.581 214.627 65.231 214.627 74.736 L 214.627 316.775 C 190.668 329.062 174.28 354.002 174.28 382.776 C 174.28 423.72 207.467 456.908 248.412 456.908 C 289.348 456.908 322.535 423.72 322.535 382.776 C 322.535 354.644 306.869 330.177 283.784 317.613 L 283.784 74.736 Z M 320.19 106.782 L 320.19 90.732 L 362.009 90.732 C 368.186 90.732 372.047 97.419 368.958 102.769 C 367.525 105.252 364.876 106.782 362.009 106.782 L 320.19 106.782 Z M 320.19 150.598 L 320.19 134.548 L 362.009 134.548 C 368.186 134.548 372.047 141.235 368.958 146.585 C 367.525 149.068 364.876 150.598 362.009 150.598 L 320.19 150.598 Z M 320.19 194.413 L 320.19 178.364 L 362.009 178.364 C 368.186 178.364 372.047 185.051 368.958 190.401 C 367.525 192.884 364.876 194.413 362.009 194.413 L 320.19 194.413 Z M 320.19 238.229 L 320.19 222.18 L 362.009 222.18 C 368.186 222.18 372.047 228.867 368.958 234.217 C 367.525 236.7 364.876 238.229 362.009 238.229 L 320.19 238.229 Z M 320.19 282.045 L 320.19 265.996 L 362.009 265.996 C 368.186 265.996 372.047 272.683 368.958 278.033 C 367.525 280.516 364.876 282.045 362.009 282.045 L 320.19 282.045 Z M 301.492 302.857 C 327.323 320.048 344.345 349.419 344.345 382.776 C 344.345 435.758 301.394 478.709 248.412 478.709 C 195.421 478.709 152.47 435.758 152.47 382.776 C 152.47 348.741 170.196 318.853 196.91 301.822 L 196.91 74.736 C 196.91 60.344 202.795 47.264 212.264 37.794 C 221.743 28.316 234.814 22.44 249.206 22.44 C 263.588 22.44 276.669 28.316 286.147 37.794 C 295.616 47.264 301.492 60.344 301.492 74.736 L 301.492 302.857 Z" style=""/>
  <path d="M 272.786 322.909 L 272.944 118.753 L 224.229 120.071 L 224.229 322.909 C 197.051 330.777 182.721 353.923 182.721 383.821 C 182.721 420.022 211.868 449.362 247.817 449.362 C 283.756 449.362 312.903 420.022 312.903 383.821 C 312.903 353.914 299.975 330.777 272.786 322.909 Z" style="fill: rgb(212, 0, 0);"/>
</svg>