<?xml version="1.0" encoding="utf-8"?>
<svg viewBox="0 0 448 388" width="448" height="388"
  xmlns="http://www.w3.org/2000/svg" class="st0">
  <style type="text/css">
    <![CDATA[
	.st0{fill-rule:evenodd;clip-rule:evenodd;fill:#007acc;}
]]>
  </style>
  <g id="XMLID_23_" transform="matrix(1.45521, 0, 0, 1.297406, -100.435478, -182.506897)" style="">
    <path id="XMLID_507_" d="M 332.395 291.329 L 197.474 291.329 L 197.474 175.258 C 197.474 161.632 186.428 150.585 172.801 150.585 L 158.266 150.585 C 144.64 150.585 133.593 161.631 133.593 175.258 C 133.593 207.22 133.593 382.144 133.593 402.252 C 133.593 411.907 141.42 419.734 151.075 419.734 L 253.585 419.734 C 260.828 419.734 267.322 415.267 269.911 408.502 L 288.603 359.671 C 316.525 347.436 336.255 325.578 339.94 300.032 C 340.602 295.45 337.048 291.329 332.395 291.329 Z"/>
  </g>
</svg>